<svg width="24" height="24" viewBox="0 0 24 24" fill="none" xmlns="http://www.w3.org/2000/svg">
  <g clip-path="url(#clip0_2_118)">
    <g opacity="0.15">
      <path d="M2.43001 10.9063C4.24344 11.3166 5.98606 11.9992 7.60001 12.9316C7.66313 12.9711 7.73584 12.992 7.81001 12.992C7.88418 12.992 7.95688 12.9711 8.02001 12.9316C9.2384 12.273 10.5222 11.7469 11.85 11.362L12.18 11.2608L11.78 10.8861C11.6098 10.7349 11.4757 10.5467 11.3876 10.3355C11.2995 10.1243 11.2597 9.89572 11.2712 9.66678C11.2828 9.43784 11.3453 9.21452 11.4542 9.01355C11.5631 8.81257 11.7155 8.63917 11.9 8.50632C13.1354 7.54838 14.68 7.09321 16.23 7.23037C17.7367 7.32024 19.1869 7.8437 20.41 8.73923L20.57 8.8405C20.57 8.72911 20.57 8.6481 20.57 8.56708V4.15189C20.6007 3.98957 20.5916 3.82213 20.5437 3.66416C20.4957 3.5062 20.4103 3.36252 20.2949 3.24567C20.1795 3.12881 20.0376 3.04233 19.8816 2.99377C19.7257 2.94521 19.5603 2.93605 19.4 2.96708H1.87001C1.71171 2.94742 1.55107 2.96454 1.40028 3.01713C1.24949 3.06972 1.11251 3.15641 0.999738 3.27061C0.886966 3.38481 0.801365 3.52352 0.749431 3.67622C0.697497 3.82892 0.680595 3.99159 0.700007 4.15189V6.81518C0.700007 7.96961 0.700007 9.12404 0.700007 10.2785V10.5418C1.29001 10.6633 1.86001 10.7747 2.43001 10.9063ZM4.00001 9.04303C3.94045 9.04482 3.88148 9.03073 3.82899 9.00217C3.77651 8.97361 3.73236 8.93159 3.70096 8.88031C3.66956 8.82903 3.65203 8.77029 3.6501 8.70999C3.64818 8.64968 3.66194 8.58993 3.69001 8.5367C3.79305 8.36252 3.9331 8.21377 4.10001 8.10126C4.15159 8.06866 4.21086 8.05067 4.27165 8.04915C4.33244 8.04764 4.39251 8.06266 4.44561 8.09265C4.49872 8.12264 4.54291 8.1665 4.57358 8.21967C4.60425 8.27284 4.62029 8.33336 4.62001 8.39493C4.58497 8.55 4.50866 8.69238 4.39936 8.80664C4.29006 8.92089 4.15195 9.00265 4.00001 9.04303ZM6.36001 9.55949C6.36003 9.60291 6.35143 9.64589 6.33473 9.68588C6.31803 9.72587 6.29356 9.76205 6.26277 9.79228C6.23199 9.82251 6.19552 9.84616 6.15554 9.86184C6.11555 9.87752 6.07286 9.8849 6.03001 9.88354C5.98717 9.88917 5.94366 9.88595 5.90208 9.87409C5.8605 9.86224 5.82173 9.84198 5.78809 9.81454C5.75445 9.7871 5.72665 9.75304 5.70636 9.71443C5.68606 9.67582 5.6737 9.63345 5.67001 9.58987C5.65 9.43525 5.65 9.27866 5.67001 9.12404C5.68392 9.04159 5.72618 8.96677 5.78932 8.91284C5.85246 8.8589 5.9324 8.82931 6.01501 8.82931C6.09761 8.82931 6.17755 8.8589 6.24069 8.91284C6.30383 8.96677 6.34609 9.04159 6.36001 9.12404V9.52911V9.55949ZM7.87001 8.9924C7.71282 8.88391 7.57714 8.74651 7.47001 8.58734C7.44238 8.53487 7.42863 8.47606 7.43012 8.41662C7.4316 8.35719 7.44825 8.29915 7.47846 8.24817C7.50867 8.19718 7.5514 8.15499 7.60249 8.1257C7.65358 8.0964 7.71129 8.08101 7.77001 8.08101C7.9152 8.11957 8.04791 8.19594 8.15492 8.30253C8.26194 8.40912 8.33954 8.54222 8.38001 8.6886C8.37915 8.74665 8.3638 8.80354 8.3354 8.85398C8.30701 8.90441 8.26647 8.94676 8.21758 8.97707C8.16868 9.00739 8.11301 9.02469 8.05574 9.02737C7.99847 9.03005 7.94146 9.01802 7.89001 8.9924H7.87001ZM8.69001 6.29873H8.87001C8.91335 6.29738 8.95653 6.30469 8.99708 6.32025C9.03763 6.33581 9.07475 6.3593 9.10633 6.3894C9.1379 6.41949 9.16331 6.4556 9.1811 6.49564C9.19889 6.53569 9.20871 6.57889 9.21001 6.62278C9.21556 6.66749 9.21212 6.71287 9.1999 6.7562C9.18768 6.79953 9.16694 6.83991 9.13891 6.87491C9.11089 6.90991 9.07616 6.93881 9.03683 6.95987C8.99749 6.98093 8.95435 6.99372 8.91001 6.99746C8.78688 7.00757 8.66314 7.00757 8.54001 6.99746C8.49108 7.00022 8.4421 6.99283 8.39609 6.97575C8.35008 6.95867 8.308 6.93225 8.27242 6.89812C8.23684 6.86399 8.20852 6.82286 8.18919 6.77726C8.16986 6.73165 8.15993 6.68253 8.16001 6.63291C8.16001 6.42025 8.31001 6.29873 8.55001 6.2886L8.69001 6.29873ZM7.53001 4.6481C7.60685 4.51969 7.7132 4.41199 7.84001 4.33417C7.95584 4.28891 8.08417 4.28891 8.20001 4.33417C8.30001 4.33417 8.36001 4.50632 8.39001 4.54683C8.39001 4.86075 8.02001 5.26582 7.79001 5.23544C7.73273 5.22793 7.67753 5.20882 7.62771 5.17925C7.57788 5.14967 7.53445 5.11023 7.50001 5.06328C7.47566 4.99588 7.46575 4.924 7.47092 4.85242C7.47609 4.78084 7.49623 4.71119 7.53001 4.6481ZM6.00001 3.40253C6.04821 3.40507 6.09542 3.4174 6.13882 3.43878C6.18223 3.46017 6.22094 3.49018 6.25266 3.52703C6.28438 3.56387 6.30846 3.6068 6.32346 3.65326C6.33847 3.69972 6.34409 3.74876 6.34001 3.79746V3.93923V4.13164C6.32609 4.21409 6.28383 4.28891 6.22069 4.34285C6.15755 4.39679 6.07761 4.42637 5.99501 4.42637C5.9124 4.42637 5.83246 4.39679 5.76932 4.34285C5.70618 4.28891 5.66392 4.21409 5.65001 4.13164C5.63504 4.0072 5.63504 3.88139 5.65001 3.75696C5.65253 3.66376 5.69021 3.57509 5.75531 3.50916C5.82041 3.44324 5.90798 3.40508 6.00001 3.40253ZM6.00001 5.00253C6.32398 4.99447 6.64296 5.08439 6.91622 5.2608C7.18949 5.43721 7.40462 5.6921 7.53415 5.99292C7.66367 6.29373 7.70171 6.62682 7.64341 6.94963C7.58511 7.27244 7.4331 7.57033 7.20682 7.80525C6.98053 8.04016 6.69024 8.20144 6.373 8.26848C6.05577 8.33552 5.72601 8.30529 5.42583 8.18163C5.12564 8.05798 4.86867 7.84652 4.68774 7.57427C4.5068 7.30202 4.4101 6.98133 4.41001 6.65316C4.40988 6.22231 4.57611 5.80849 4.8732 5.50008C5.17028 5.19166 5.57467 5.0131 6.00001 5.00253ZM4.00001 4.25316C4.14612 4.2898 4.27982 4.36552 4.38713 4.47241C4.49444 4.5793 4.57141 4.71342 4.61001 4.86075C4.61099 4.92167 4.596 4.98175 4.56656 5.03488C4.53713 5.08801 4.49429 5.13228 4.44244 5.16317C4.39059 5.19406 4.33157 5.21046 4.27141 5.2107C4.21125 5.21095 4.1521 5.19502 4.10001 5.16455C3.94625 5.05939 3.81386 4.92532 3.71001 4.76961C3.6769 4.71821 3.65841 4.65857 3.65656 4.59723C3.65472 4.53589 3.66959 4.47522 3.69955 4.42187C3.7295 4.36852 3.77339 4.32455 3.82639 4.29479C3.87939 4.26504 3.93946 4.25063 4.00001 4.25316ZM3.20001 6.27847H3.50001C3.54679 6.27433 3.59392 6.27976 3.63858 6.29445C3.68325 6.30913 3.72454 6.33277 3.76 6.36395C3.79545 6.39513 3.82435 6.43322 3.84497 6.47595C3.86559 6.51867 3.8775 6.56516 3.88001 6.61265C3.88134 6.66137 3.87302 6.70987 3.85553 6.75527C3.83804 6.80068 3.81173 6.84207 3.77817 6.877C3.7446 6.91194 3.70447 6.9397 3.66012 6.95865C3.61578 6.9776 3.56814 6.98735 3.52001 6.98734H3.20001C3.15104 6.98873 3.10231 6.98 3.0568 6.96166C3.01128 6.94333 2.96994 6.91578 2.93531 6.8807C2.90067 6.84563 2.87347 6.80376 2.85536 6.75767C2.83725 6.71158 2.82863 6.66224 2.83001 6.61265C2.8401 6.52034 2.88557 6.43573 2.95664 6.37703C3.0277 6.31832 3.11868 6.2902 3.21001 6.29873L3.20001 6.27847Z" fill="#3CF900"/>
      <path d="M2.43001 10.9063C4.24344 11.3166 5.98606 11.9992 7.60001 12.9316C7.66313 12.9711 7.73584 12.992 7.81001 12.992C7.88418 12.992 7.95688 12.9711 8.02001 12.9316C9.2384 12.273 10.5222 11.7469 11.85 11.362L12.18 11.2608L11.78 10.8861C11.6098 10.7349 11.4757 10.5467 11.3876 10.3355C11.2995 10.1243 11.2597 9.89572 11.2712 9.66678C11.2828 9.43784 11.3453 9.21452 11.4542 9.01355C11.5631 8.81257 11.7155 8.63917 11.9 8.50632C13.1354 7.54838 14.68 7.09321 16.23 7.23037C17.7367 7.32024 19.1869 7.8437 20.41 8.73923L20.57 8.8405C20.57 8.72911 20.57 8.6481 20.57 8.56708V4.15189C20.6007 3.98957 20.5916 3.82213 20.5437 3.66416C20.4957 3.5062 20.4103 3.36252 20.2949 3.24567C20.1795 3.12881 20.0376 3.04233 19.8816 2.99377C19.7257 2.94521 19.5603 2.93605 19.4 2.96708H1.87001C1.71171 2.94742 1.55107 2.96454 1.40028 3.01713C1.24949 3.06972 1.11251 3.15641 0.999738 3.27061C0.886966 3.38481 0.801365 3.52352 0.749431 3.67622C0.697497 3.82892 0.680595 3.99159 0.700007 4.15189V6.81518C0.700007 7.96961 0.700007 9.12404 0.700007 10.2785V10.5418C1.29001 10.6633 1.86001 10.7747 2.43001 10.9063ZM4.00001 9.04303C3.94045 9.04482 3.88148 9.03073 3.82899 9.00217C3.77651 8.97361 3.73236 8.93159 3.70096 8.88031C3.66956 8.82903 3.65203 8.77029 3.6501 8.70999C3.64818 8.64968 3.66194 8.58993 3.69001 8.5367C3.79305 8.36252 3.9331 8.21377 4.10001 8.10126C4.15159 8.06866 4.21086 8.05067 4.27165 8.04915C4.33244 8.04764 4.39251 8.06266 4.44561 8.09265C4.49872 8.12264 4.54291 8.1665 4.57358 8.21967C4.60425 8.27284 4.62029 8.33336 4.62001 8.39493C4.58497 8.55 4.50866 8.69238 4.39936 8.80664C4.29006 8.92089 4.15195 9.00265 4.00001 9.04303ZM6.36001 9.55949C6.36003 9.60291 6.35143 9.64589 6.33473 9.68588C6.31803 9.72587 6.29356 9.76205 6.26277 9.79228C6.23199 9.82251 6.19552 9.84616 6.15554 9.86184C6.11555 9.87752 6.07286 9.8849 6.03001 9.88354C5.98717 9.88917 5.94366 9.88595 5.90208 9.87409C5.8605 9.86224 5.82173 9.84198 5.78809 9.81454C5.75445 9.7871 5.72665 9.75304 5.70636 9.71443C5.68606 9.67582 5.6737 9.63345 5.67001 9.58987C5.65 9.43525 5.65 9.27866 5.67001 9.12404C5.68392 9.04159 5.72618 8.96677 5.78932 8.91284C5.85246 8.8589 5.9324 8.82931 6.01501 8.82931C6.09761 8.82931 6.17755 8.8589 6.24069 8.91284C6.30383 8.96677 6.34609 9.04159 6.36001 9.12404V9.52911V9.55949ZM7.87001 8.9924C7.71282 8.88391 7.57714 8.74651 7.47001 8.58734C7.44238 8.53487 7.42863 8.47606 7.43012 8.41662C7.4316 8.35719 7.44825 8.29915 7.47846 8.24817C7.50867 8.19718 7.5514 8.15499 7.60249 8.1257C7.65358 8.0964 7.71129 8.08101 7.77001 8.08101C7.9152 8.11957 8.04791 8.19594 8.15492 8.30253C8.26194 8.40912 8.33954 8.54222 8.38001 8.6886C8.37915 8.74665 8.3638 8.80354 8.3354 8.85398C8.30701 8.90441 8.26647 8.94676 8.21758 8.97707C8.16868 9.00739 8.11301 9.02469 8.05574 9.02737C7.99847 9.03005 7.94146 9.01802 7.89001 8.9924H7.87001ZM8.69001 6.29873H8.87001C8.91335 6.29738 8.95653 6.30469 8.99708 6.32025C9.03763 6.33581 9.07475 6.3593 9.10633 6.3894C9.1379 6.41949 9.16331 6.4556 9.1811 6.49564C9.19889 6.53569 9.20871 6.57889 9.21001 6.62278C9.21556 6.66749 9.21212 6.71287 9.1999 6.7562C9.18768 6.79953 9.16694 6.83991 9.13891 6.87491C9.11089 6.90991 9.07616 6.93881 9.03683 6.95987C8.99749 6.98093 8.95435 6.99372 8.91001 6.99746C8.78688 7.00757 8.66314 7.00757 8.54001 6.99746C8.49108 7.00022 8.4421 6.99283 8.39609 6.97575C8.35008 6.95867 8.308 6.93225 8.27242 6.89812C8.23684 6.86399 8.20852 6.82286 8.18919 6.77726C8.16986 6.73165 8.15993 6.68253 8.16001 6.63291C8.16001 6.42025 8.31001 6.29873 8.55001 6.2886L8.69001 6.29873ZM7.53001 4.6481C7.60685 4.51969 7.7132 4.41199 7.84001 4.33417C7.95584 4.28891 8.08417 4.28891 8.20001 4.33417C8.30001 4.33417 8.36001 4.50632 8.39001 4.54683C8.39001 4.86075 8.02001 5.26582 7.79001 5.23544C7.73273 5.22793 7.67753 5.20882 7.62771 5.17925C7.57788 5.14967 7.53445 5.11023 7.50001 5.06328C7.47566 4.99588 7.46575 4.924 7.47092 4.85242C7.47609 4.78084 7.49623 4.71119 7.53001 4.6481ZM6.00001 3.40253C6.04821 3.40507 6.09542 3.4174 6.13882 3.43878C6.18223 3.46017 6.22094 3.49018 6.25266 3.52703C6.28438 3.56387 6.30846 3.6068 6.32346 3.65326C6.33847 3.69972 6.34409 3.74876 6.34001 3.79746V3.93923V4.13164C6.32609 4.21409 6.28383 4.28891 6.22069 4.34285C6.15755 4.39679 6.07761 4.42637 5.99501 4.42637C5.9124 4.42637 5.83246 4.39679 5.76932 4.34285C5.70618 4.28891 5.66392 4.21409 5.65001 4.13164C5.63504 4.0072 5.63504 3.88139 5.65001 3.75696C5.65253 3.66376 5.69021 3.57509 5.75531 3.50916C5.82041 3.44324 5.90798 3.40508 6.00001 3.40253ZM6.00001 5.00253C6.32398 4.99447 6.64296 5.08439 6.91622 5.2608C7.18949 5.43721 7.40462 5.6921 7.53415 5.99292C7.66367 6.29373 7.70171 6.62682 7.64341 6.94963C7.58511 7.27244 7.4331 7.57033 7.20682 7.80525C6.98053 8.04016 6.69024 8.20144 6.373 8.26848C6.05577 8.33552 5.72601 8.30529 5.42583 8.18163C5.12564 8.05798 4.86867 7.84652 4.68774 7.57427C4.5068 7.30202 4.4101 6.98133 4.41001 6.65316C4.40988 6.22231 4.57611 5.80849 4.8732 5.50008C5.17028 5.19166 5.57467 5.0131 6.00001 5.00253ZM4.00001 4.25316C4.14612 4.2898 4.27982 4.36552 4.38713 4.47241C4.49444 4.5793 4.57141 4.71342 4.61001 4.86075C4.61099 4.92167 4.596 4.98175 4.56656 5.03488C4.53713 5.08801 4.49429 5.13228 4.44244 5.16317C4.39059 5.19406 4.33157 5.21046 4.27141 5.2107C4.21125 5.21095 4.1521 5.19502 4.10001 5.16455C3.94625 5.05939 3.81386 4.92532 3.71001 4.76961C3.6769 4.71821 3.65841 4.65857 3.65656 4.59723C3.65472 4.53589 3.66959 4.47522 3.69955 4.42187C3.7295 4.36852 3.77339 4.32455 3.82639 4.29479C3.87939 4.26504 3.93946 4.25063 4.00001 4.25316ZM3.20001 6.27847H3.50001C3.54679 6.27433 3.59392 6.27976 3.63858 6.29445C3.68325 6.30913 3.72454 6.33277 3.76 6.36395C3.79545 6.39513 3.82435 6.43322 3.84497 6.47595C3.86559 6.51867 3.8775 6.56516 3.88001 6.61265C3.88134 6.66137 3.87302 6.70987 3.85553 6.75527C3.83804 6.80068 3.81173 6.84207 3.77817 6.877C3.7446 6.91194 3.70447 6.9397 3.66012 6.95865C3.61578 6.9776 3.56814 6.98735 3.52001 6.98734H3.20001C3.15104 6.98873 3.10231 6.98 3.0568 6.96166C3.01128 6.94333 2.96994 6.91578 2.93531 6.8807C2.90067 6.84563 2.87347 6.80376 2.85536 6.75767C2.83725 6.71158 2.82863 6.66224 2.83001 6.61265C2.8401 6.52034 2.88557 6.43573 2.95664 6.37703C3.0277 6.31832 3.11868 6.2902 3.21001 6.29873L3.20001 6.27847Z" fill="url(#paint0_linear_2_118)"/>
    </g>
    <g opacity="0.15">
      <path d="M7.08001 13.4582C5.10316 12.3589 2.95008 11.6218 0.720013 11.281C0.716905 11.3181 0.716905 11.3553 0.720013 11.3924C0.720013 12.8709 0.720013 14.3392 0.720013 15.8076C0.720013 16.0762 0.82537 16.3337 1.01291 16.5236C1.20044 16.7136 1.4548 16.8202 1.72001 16.8202C2.08001 16.8202 2.44001 16.8202 2.80001 16.8202C2.87185 16.8209 2.94297 16.8058 3.00855 16.7761C3.07412 16.7464 3.1326 16.7027 3.18001 16.6481C4.28421 15.4614 5.53446 14.4234 6.90001 13.5595L7.08001 13.4582Z" fill="#3CF900"/>
      <path d="M7.08001 13.4582C5.10316 12.3589 2.95008 11.6218 0.720013 11.281C0.716905 11.3181 0.716905 11.3553 0.720013 11.3924C0.720013 12.8709 0.720013 14.3392 0.720013 15.8076C0.720013 16.0762 0.82537 16.3337 1.01291 16.5236C1.20044 16.7136 1.4548 16.8202 1.72001 16.8202C2.08001 16.8202 2.44001 16.8202 2.80001 16.8202C2.87185 16.8209 2.94297 16.8058 3.00855 16.7761C3.07412 16.7464 3.1326 16.7027 3.18001 16.6481C4.28421 15.4614 5.53446 14.4234 6.90001 13.5595L7.08001 13.4582Z" fill="url(#paint1_linear_2_118)"/>
    </g>
    <g opacity="0.15">
      <path d="M18 11.5949L18.14 11.524C18.091 11.3446 18.0872 11.1555 18.129 10.9742C18.1707 10.7928 18.2567 10.625 18.3791 10.486C18.5014 10.3469 18.6562 10.2412 18.8293 10.1784C19.0024 10.1156 19.1883 10.0978 19.37 10.1266L19.97 9.26579L19.9 9.21516C18.7742 8.43039 17.4551 7.9781 16.09 7.90883C14.7852 7.82291 13.4914 8.19877 12.43 8.97212C12.2991 9.03976 12.1879 9.14101 12.1078 9.26576C12.0276 9.3905 11.9811 9.53438 11.973 9.683C11.9649 9.83163 11.9954 9.9798 12.0616 10.1127C12.1278 10.2456 12.2272 10.3587 12.35 10.4405C12.8905 10.928 13.297 11.549 13.53 12.243C13.7805 12.8141 13.7981 13.4622 13.5789 14.0464C13.3598 14.6305 12.9217 15.1034 12.36 15.362C12.2572 15.4092 12.1661 15.4791 12.0933 15.5664C12.0204 15.6538 11.9678 15.7564 11.939 15.867C11.9103 15.9776 11.9062 16.0932 11.9272 16.2055C11.9481 16.3179 11.9935 16.4241 12.06 16.5164C12.236 16.7479 12.4264 16.9677 12.63 17.1747L12.81 16.9823C14 15.5747 15.24 14.1772 16.43 12.719C16.823 12.1857 17.3726 11.7923 18 11.5949Z" fill="#3CF900"/>
      <path d="M18 11.5949L18.14 11.524C18.091 11.3446 18.0872 11.1555 18.129 10.9742C18.1707 10.7928 18.2567 10.625 18.3791 10.486C18.5014 10.3469 18.6562 10.2412 18.8293 10.1784C19.0024 10.1156 19.1883 10.0978 19.37 10.1266L19.97 9.26579L19.9 9.21516C18.7742 8.43039 17.4551 7.9781 16.09 7.90883C14.7852 7.82291 13.4914 8.19877 12.43 8.97212C12.2991 9.03976 12.1879 9.14101 12.1078 9.26576C12.0276 9.3905 11.9811 9.53438 11.973 9.683C11.9649 9.83163 11.9954 9.9798 12.0616 10.1127C12.1278 10.2456 12.2272 10.3587 12.35 10.4405C12.8905 10.928 13.297 11.549 13.53 12.243C13.7805 12.8141 13.7981 13.4622 13.5789 14.0464C13.3598 14.6305 12.9217 15.1034 12.36 15.362C12.2572 15.4092 12.1661 15.4791 12.0933 15.5664C12.0204 15.6538 11.9678 15.7564 11.939 15.867C11.9103 15.9776 11.9062 16.0932 11.9272 16.2055C11.9481 16.3179 11.9935 16.4241 12.06 16.5164C12.236 16.7479 12.4264 16.9677 12.63 17.1747L12.81 16.9823C14 15.5747 15.24 14.1772 16.43 12.719C16.823 12.1857 17.3726 11.7923 18 11.5949Z" fill="url(#paint2_linear_2_118)"/>
    </g>
    <g opacity="0.15">
      <path d="M6.00001 7.5848C6.12654 7.59599 6.25399 7.58053 6.37433 7.53938C6.49467 7.49824 6.60529 7.43231 6.69923 7.34574C6.79317 7.25917 6.86839 7.15385 6.92015 7.03639C6.97192 6.91894 6.99911 6.7919 7.00001 6.66329C7.00514 6.53205 6.98221 6.40125 6.93278 6.27983C6.88336 6.15841 6.8086 6.04924 6.71362 5.9598C6.61865 5.87036 6.50572 5.80276 6.38255 5.76163C6.25938 5.7205 6.12889 5.70682 6.00001 5.72151C5.75771 5.71879 5.52413 5.81298 5.35 5.98362C5.17588 6.15426 5.07526 6.38758 5.07001 6.63291C5.06999 6.88362 5.16765 7.12422 5.34178 7.30244C5.51591 7.48067 5.75244 7.58214 6.00001 7.5848Z" fill="#3CF900"/>
      <path d="M6.00001 7.5848C6.12654 7.59599 6.25399 7.58053 6.37433 7.53938C6.49467 7.49824 6.60529 7.43231 6.69923 7.34574C6.79317 7.25917 6.86839 7.15385 6.92015 7.03639C6.97192 6.91894 6.99911 6.7919 7.00001 6.66329C7.00514 6.53205 6.98221 6.40125 6.93278 6.27983C6.88336 6.15841 6.8086 6.04924 6.71362 5.9598C6.61865 5.87036 6.50572 5.80276 6.38255 5.76163C6.25938 5.7205 6.12889 5.70682 6.00001 5.72151C5.75771 5.71879 5.52413 5.81298 5.35 5.98362C5.17588 6.15426 5.07526 6.38758 5.07001 6.63291C5.06999 6.88362 5.16765 7.12422 5.34178 7.30244C5.51591 7.48067 5.75244 7.58214 6.00001 7.5848Z" fill="url(#paint3_linear_2_118)"/>
    </g>
    <path opacity="0.15" d="M11.54 2.24808V1.6101C11.538 1.38299 11.4514 1.16501 11.2975 0.999788C11.1436 0.834561 10.9338 0.734265 10.71 0.718963C10.4904 0.70061 10.2719 0.766376 10.0979 0.903258C9.92381 1.04014 9.80681 1.23817 9.76999 1.4582C9.74968 1.72109 9.74968 1.98519 9.76999 2.24808H11.54Z" fill="url(#paint4_linear_2_118)"/>
    <g opacity="0.15">
      <path d="M22.92 13.9443C22.8562 13.3899 22.7042 12.8496 22.47 12.3443L21.87 12.5671C21.9435 12.7492 21.9672 12.948 21.9385 13.1425C21.9098 13.3371 21.8298 13.5202 21.707 13.6726C21.5841 13.825 21.423 13.941 21.2405 14.0084C21.058 14.0759 20.8609 14.0922 20.67 14.0557C20.6145 14.2141 20.5511 14.3696 20.48 14.5215C20.3684 14.7961 20.2167 15.0521 20.03 15.281C19.62 15.6658 19.21 16.0304 18.79 16.3949L16.79 18.1367L16.67 18.2481L15.82 18.9975L16.05 19.0684C16.9849 19.3278 17.9646 19.3762 18.92 19.2101C20.1353 19.0387 21.2355 18.3907 21.9837 17.4058C22.7318 16.4209 23.0681 15.1778 22.92 13.9443Z" fill="#3CF900"/>
      <path d="M22.92 13.9443C22.8562 13.3899 22.7042 12.8496 22.47 12.3443L21.87 12.5671C21.9435 12.7492 21.9672 12.948 21.9385 13.1425C21.9098 13.3371 21.8298 13.5202 21.707 13.6726C21.5841 13.825 21.423 13.941 21.2405 14.0084C21.058 14.0759 20.8609 14.0922 20.67 14.0557C20.6145 14.2141 20.5511 14.3696 20.48 14.5215C20.3684 14.7961 20.2167 15.0521 20.03 15.281C19.62 15.6658 19.21 16.0304 18.79 16.3949L16.79 18.1367L16.67 18.2481L15.82 18.9975L16.05 19.0684C16.9849 19.3278 17.9646 19.3762 18.92 19.2101C20.1353 19.0387 21.2355 18.3907 21.9837 17.4058C22.7318 16.4209 23.0681 15.1778 22.92 13.9443Z" fill="url(#paint5_linear_2_118)"/>
    </g>
    <g opacity="0.15">
      <path d="M15.9 20.0202C15.8802 19.9543 15.844 19.8946 15.795 19.8468C15.746 19.7989 15.6858 19.7645 15.62 19.7468C15.25 19.5646 14.62 20 14.62 20.0304C14.23 20.3646 14.23 20.3646 14.4 20.8506C14.57 21.3367 14.82 22.1063 15.04 22.7342C15.1025 22.9316 15.2356 23.0982 15.4133 23.2013C15.5909 23.3044 15.8002 23.3364 16 23.2911C16.201 23.2503 16.381 23.138 16.5076 22.9746C16.6341 22.8112 16.6988 22.6074 16.69 22.4C16.69 22.3291 16.69 22.2076 16.61 22.0861C16.36 21.3772 16.12 20.6987 15.9 20.0202Z" fill="#3CF900"/>
      <path d="M15.9 20.0202C15.8802 19.9543 15.844 19.8946 15.795 19.8468C15.746 19.7989 15.6858 19.7645 15.62 19.7468C15.25 19.5646 14.62 20 14.62 20.0304C14.23 20.3646 14.23 20.3646 14.4 20.8506C14.57 21.3367 14.82 22.1063 15.04 22.7342C15.1025 22.9316 15.2356 23.0982 15.4133 23.2013C15.5909 23.3044 15.8002 23.3364 16 23.2911C16.201 23.2503 16.381 23.138 16.5076 22.9746C16.6341 22.8112 16.6988 22.6074 16.69 22.4C16.69 22.3291 16.69 22.2076 16.61 22.0861C16.36 21.3772 16.12 20.6987 15.9 20.0202Z" fill="url(#paint6_linear_2_118)"/>
    </g>
    <g opacity="0.15">
      <path d="M6.00001 18.2278L4.69001 22.0962C4.65056 22.2029 4.63267 22.3165 4.6374 22.4303C4.64214 22.5441 4.6694 22.6558 4.71757 22.7588C4.76575 22.8617 4.83385 22.9538 4.91785 23.0296C5.00184 23.1054 5.10001 23.1633 5.20653 23.2C5.31305 23.2366 5.42575 23.2512 5.53795 23.2429C5.65015 23.2346 5.75955 23.2035 5.85968 23.1516C5.9598 23.0996 6.04859 23.0278 6.1208 22.9405C6.19301 22.8531 6.24715 22.752 6.28001 22.643C6.62001 21.6304 6.96001 20.6785 7.28001 19.6962C7.52001 18.9873 7.76001 18.2785 8.01001 17.5595H6.24001L6.00001 18.2278Z" fill="#3CF900"/>
      <path d="M6.00001 18.2278L4.69001 22.0962C4.65056 22.2029 4.63267 22.3165 4.6374 22.4303C4.64214 22.5441 4.6694 22.6558 4.71757 22.7588C4.76575 22.8617 4.83385 22.9538 4.91785 23.0296C5.00184 23.1054 5.10001 23.1633 5.20653 23.2C5.31305 23.2366 5.42575 23.2512 5.53795 23.2429C5.65015 23.2346 5.75955 23.2035 5.85968 23.1516C5.9598 23.0996 6.04859 23.0278 6.1208 22.9405C6.19301 22.8531 6.24715 22.752 6.28001 22.643C6.62001 21.6304 6.96001 20.6785 7.28001 19.6962C7.52001 18.9873 7.76001 18.2785 8.01001 17.5595H6.24001L6.00001 18.2278Z" fill="url(#paint7_linear_2_118)"/>
    </g>
    <g opacity="0.15">
      <path d="M11.23 16.0101C11.2334 15.7262 11.3198 15.4497 11.4782 15.2154C11.6366 14.9812 11.8599 14.7996 12.12 14.6937C12.3559 14.6055 12.563 14.4528 12.7183 14.2526C12.8737 14.0523 12.9712 13.8124 13 13.5595C13.0603 12.9816 12.9264 12.4001 12.62 11.9088C9.35862 12.7205 6.37806 14.4187 4 16.8202H11.32C11.2663 16.5534 11.2361 16.2823 11.23 16.0101Z" fill="#3CF900"/>
      <path d="M11.23 16.0101C11.2334 15.7262 11.3198 15.4497 11.4782 15.2154C11.6366 14.9812 11.8599 14.7996 12.12 14.6937C12.3559 14.6055 12.563 14.4528 12.7183 14.2526C12.8737 14.0523 12.9712 13.8124 13 13.5595C13.0603 12.9816 12.9264 12.4001 12.62 11.9088C9.35862 12.7205 6.37806 14.4187 4 16.8202H11.32C11.2663 16.5534 11.2361 16.2823 11.23 16.0101Z" fill="url(#paint8_linear_2_118)"/>
    </g>
    <g opacity="0.15">
      <path d="M8.91 17.5493C8.87763 17.55 8.84575 17.5575 8.81646 17.5715C8.78716 17.5854 8.76111 17.6055 8.74 17.6304L8.25 19.0582H11C11.05 19.0582 11.1 19.0076 11.14 18.9569L11.6 18.3595C11.77 18.1468 11.95 17.9443 12.16 17.7012C12.02 17.6405 11.92 17.5493 11.82 17.5493H8.91Z" fill="#3CF900"/>
      <path d="M8.91 17.5493C8.87763 17.55 8.84575 17.5575 8.81646 17.5715C8.78716 17.5854 8.76111 17.6055 8.74 17.6304L8.25 19.0582H11C11.05 19.0582 11.1 19.0076 11.14 18.9569L11.6 18.3595C11.77 18.1468 11.95 17.9443 12.16 17.7012C12.02 17.6405 11.92 17.5493 11.82 17.5493H8.91Z" fill="url(#paint9_linear_2_118)"/>
    </g>
    <mask id="path-11-inside-1_2_118" fill="white">
      <path d="M23.71 10.8253C24.001 10.0654 24.1007 9.24408 24 8.43543C24.0017 8.33026 23.9734 8.22682 23.9185 8.13751C23.8636 8.04821 23.7845 7.97683 23.6905 7.93194C23.5966 7.88705 23.4919 7.87054 23.3889 7.88441C23.2859 7.89828 23.1891 7.94192 23.11 8.01011C22.8232 8.19903 22.5223 8.36493 22.21 8.50632C21.9229 8.61691 21.6289 8.70825 21.33 8.77973V4.14176C21.3253 3.91623 21.2951 3.69198 21.24 3.4734C21.1241 3.10008 20.8874 2.77716 20.5681 2.5567C20.2488 2.33624 19.8655 2.2311 19.48 2.25821H12.28V1.65062C12.2974 1.42776 12.2691 1.20365 12.1969 0.992401C12.1247 0.78115 12.01 0.587325 11.8602 0.423118C11.7104 0.258912 11.5286 0.127878 11.3264 0.0382583C11.1241 -0.0513609 10.9058 -0.0976257 10.685 -0.0976257C10.4642 -0.0976257 10.2459 -0.0513609 10.0436 0.0382583C9.84135 0.127878 9.65961 0.258912 9.50979 0.423118C9.35998 0.587325 9.24534 0.78115 9.1731 0.992401C9.10085 1.20365 9.07256 1.42776 9.09 1.65062V2.25821H1.85C1.42299 2.22045 0.997338 2.34456 0.65554 2.6065C0.313742 2.86843 0.080138 3.24953 0 3.67594C0 3.67594 0 4.18227 0 4.5367V16.081C0 16.081 0 16.081 0 16.1418C0.0839884 16.5615 0.316083 16.9359 0.652886 17.195C0.98969 17.4541 1.40814 17.58 1.83 17.5494H5.49L5.27 18.2278C4.85 19.4329 4.43 20.6582 4 21.8937C3.92385 22.0896 3.88768 22.2991 3.89365 22.5096C3.89963 22.7201 3.94764 22.9271 4.03478 23.1183C4.12191 23.3095 4.24638 23.4808 4.40068 23.622C4.55497 23.7631 4.73589 23.8712 4.93254 23.9396C5.12918 24.008 5.33747 24.0354 5.54485 24.0201C5.75223 24.0048 5.95441 23.9472 6.13919 23.8506C6.32397 23.7541 6.48753 23.6206 6.62 23.4583C6.75248 23.296 6.85113 23.1083 6.91 22.9063C7.25 21.9443 7.58 20.9823 7.91 20.0202C7.98 19.8177 8.06 19.7468 8.27 19.7468C9.09 19.7468 9.91 19.7468 10.73 19.7468H11C11.0142 20.0543 11.1163 20.351 11.2938 20.6008C11.4713 20.8507 11.7167 21.043 12 21.1544C12.2811 21.2716 12.5893 21.3052 12.8886 21.2514C13.1879 21.1976 13.4659 21.0586 13.69 20.8506C13.94 21.5696 14.16 22.2683 14.42 22.9569C14.515 23.2517 14.6997 23.5083 14.9476 23.6903C15.1955 23.8722 15.4939 23.9699 15.8 23.9696C16.0876 23.9894 16.3746 23.9232 16.6252 23.7792C16.8759 23.6351 17.0793 23.4196 17.21 23.1595C17.3206 22.9587 17.3861 22.7357 17.4016 22.5064C17.4172 22.2771 17.3825 22.0471 17.3 21.8329C17.08 21.2253 16.88 20.6076 16.67 19.9797H16.82C18.0403 20.1645 19.2874 19.9996 20.42 19.5038C21.3272 19.1392 22.1134 18.5211 22.687 17.7215C23.2606 16.9219 23.5981 15.9737 23.66 14.9873C23.7414 13.9846 23.5694 12.9775 23.16 12.0607C23.1333 12.0066 23.1238 11.9455 23.1328 11.8856C23.1417 11.8258 23.1687 11.7703 23.21 11.7266C23.4066 11.4442 23.5741 11.1422 23.71 10.8253ZM9.77 1.45821C9.80682 1.23818 9.92382 1.04015 10.0979 0.903269C10.2719 0.766388 10.4904 0.700622 10.71 0.718974C10.9338 0.734277 11.1436 0.834573 11.2975 0.999799C11.4514 1.16503 11.538 1.383 11.54 1.61011V2.24809H9.76C9.74302 1.98493 9.74636 1.72084 9.77 1.45821ZM0.7 6.81518V4.15189C0.680587 3.99158 0.69749 3.82891 0.749424 3.67621C0.801357 3.52351 0.886959 3.3848 0.99973 3.2706C1.1125 3.1564 1.24948 3.06972 1.40027 3.01712C1.55106 2.96453 1.7117 2.94742 1.87 2.96708H19.42C19.5803 2.93604 19.7456 2.9452 19.9016 2.99376C20.0576 3.04232 20.1995 3.1288 20.3149 3.24566C20.4303 3.36252 20.5157 3.50619 20.5636 3.66416C20.6116 3.82212 20.6206 3.98957 20.59 4.15189V8.56708C20.59 8.64809 20.59 8.7291 20.59 8.84049L20.43 8.73923C19.2069 7.84369 17.7567 7.32024 16.25 7.23037C14.6933 7.08803 13.1406 7.54346 11.9 8.50632C11.7137 8.63899 11.5597 8.81287 11.4497 9.01478C11.3396 9.21669 11.2764 9.44132 11.2649 9.67164C11.2533 9.90196 11.2937 10.1319 11.3829 10.3441C11.4722 10.5563 11.608 10.7451 11.78 10.8962L12.18 11.2709L11.85 11.3721C10.5154 11.7557 9.22476 12.2818 8 12.9418C7.93688 12.9812 7.86417 13.0021 7.79 13.0021C7.71583 13.0021 7.64312 12.9812 7.58 12.9418C5.96605 12.0093 4.22343 11.3267 2.41 10.9164C1.84 10.7848 1.27 10.6734 0.68 10.5519V10.2886C0.7 9.11391 0.71 7.96961 0.7 6.81518ZM19.37 10.1266C19.1889 10.0907 19.0017 10.1015 18.8258 10.1581C18.6498 10.2147 18.4908 10.3152 18.3633 10.4503C18.2358 10.5855 18.1439 10.751 18.0962 10.9315C18.0484 11.1121 18.0463 11.3019 18.09 11.4835L17.95 11.5544C17.3408 11.7611 16.8099 12.1538 16.43 12.6785C15.24 14.1772 14 15.5747 12.8 17.0025L12.62 17.1949C12.4164 16.988 12.226 16.7681 12.05 16.5367C11.9835 16.4443 11.9381 16.3381 11.9172 16.2258C11.8962 16.1135 11.9003 15.9978 11.929 15.8873C11.9577 15.7767 12.0104 15.674 12.0833 15.5867C12.1561 15.4993 12.2472 15.4295 12.35 15.3823C12.9117 15.1236 13.3498 14.6508 13.5689 14.0666C13.7881 13.4825 13.7705 12.8343 13.52 12.2633C13.287 11.5693 12.8805 10.9483 12.34 10.4607C12.2172 10.3789 12.1178 10.2659 12.0516 10.133C11.9854 10.0001 11.9549 9.8519 11.963 9.70327C11.9711 9.55464 12.0175 9.41077 12.0977 9.28603C12.1779 9.16128 12.2891 9.06003 12.42 8.99239C13.4814 8.21904 14.7752 7.84317 16.08 7.9291C17.445 7.99837 18.7642 8.45066 19.89 9.23543L19.96 9.28606L19.37 10.1266ZM21.12 12.6987C21.1883 12.7892 21.2454 12.8879 21.29 12.9924C21.2 13.0937 21.13 13.2456 21.03 13.2759C20.9663 13.2912 20.9 13.2918 20.836 13.2778C20.7719 13.2638 20.7118 13.2355 20.66 13.1949C20.23 12.8 19.82 12.3645 19.41 11.9494C19.24 11.7873 19.07 11.6152 18.91 11.443C18.8767 11.41 18.8503 11.3706 18.8323 11.3272C18.8142 11.2837 18.8049 11.237 18.8049 11.1899C18.8049 11.1427 18.8142 11.096 18.8323 11.0526C18.8503 11.0091 18.8767 10.9697 18.91 10.9367C18.9419 10.8983 18.9817 10.8675 19.0266 10.8464C19.0715 10.8252 19.1205 10.8143 19.17 10.8143C19.2195 10.8143 19.2685 10.8252 19.3134 10.8464C19.3583 10.8675 19.3981 10.8983 19.43 10.9367L21.12 12.6987ZM2.81 16.7494C2.45 16.7494 2.09 16.7494 1.73 16.7494C1.46478 16.7494 1.21043 16.6427 1.02289 16.4528C0.835357 16.2628 0.73 16.0053 0.73 15.7367C0.73 14.2683 0.73 12.8 0.73 11.3215C0.726892 11.2844 0.726892 11.2472 0.73 11.2101C2.96006 11.5509 5.11314 12.288 7.09 13.3873L6.92 13.5088C5.55444 14.3727 4.3042 15.4108 3.2 16.5975C3.15881 16.6665 3.10193 16.7246 3.03409 16.7668C2.96625 16.8091 2.88942 16.8344 2.81 16.8405V16.7494ZM7.29 19.6051C6.96 20.6177 6.62 21.5696 6.29 22.5519C6.25713 22.6608 6.20299 22.762 6.13079 22.8494C6.05858 22.9367 5.96978 23.0085 5.86966 23.0604C5.76954 23.1124 5.66014 23.1434 5.54794 23.1517C5.43574 23.1601 5.32304 23.1455 5.21652 23.1088C5.10999 23.0722 5.01182 23.0143 4.92783 22.9385C4.84384 22.8627 4.77574 22.7706 4.72756 22.6676C4.67939 22.5647 4.65212 22.453 4.64739 22.3392C4.64265 22.2254 4.66055 22.1117 4.7 22.005L6 18.2278L6.22 17.6101H8C7.77 18.2785 7.53 18.9873 7.29 19.6962V19.6051ZM4 16.8202C6.36421 14.4267 9.32651 12.729 12.57 11.9088C12.894 12.3938 13.0456 12.9758 13 13.5595C12.9738 13.809 12.8808 14.0465 12.731 14.2464C12.5812 14.4463 12.3803 14.601 12.15 14.6937C11.8899 14.7996 11.6666 14.9812 11.5082 15.2154C11.3498 15.4497 11.2634 15.7262 11.26 16.0101C11.2727 16.2829 11.3095 16.5541 11.37 16.8202H4ZM11.16 18.9569C11.16 19.0076 11.07 19.0582 11.02 19.0582H8.25L8.74 17.6304C8.76111 17.6055 8.78716 17.5854 8.81646 17.5715C8.84575 17.5575 8.87763 17.55 8.91 17.5494H11.86C11.96 17.5494 12.06 17.6405 12.2 17.7013C11.99 17.9443 11.81 18.1468 11.64 18.3595L11.16 18.9569ZM13.16 20.3443C13.0479 20.4502 12.9114 20.5261 12.7629 20.565C12.6145 20.6039 12.4588 20.6046 12.31 20.5671C12.1649 20.5285 12.0322 20.4527 11.9246 20.3469C11.817 20.2411 11.7383 20.1089 11.696 19.9632C11.6538 19.8175 11.6494 19.6632 11.6834 19.5152C11.7174 19.3673 11.7886 19.2308 11.89 19.119L14.44 16.081C15.39 14.9671 16.35 13.8532 17.29 12.7291C17.6395 12.4496 18.0459 12.2525 18.48 12.1519C18.48 12.1519 18.59 12.1519 18.63 12.2228C19.08 12.6785 19.53 13.124 19.97 13.5797C19.9989 13.6511 19.9989 13.7311 19.97 13.8025C19.8014 14.3854 19.4504 14.8971 18.97 15.2607C18.56 15.5645 18.18 15.919 17.79 16.2734L16.12 17.7418L14.96 18.7544L13.16 20.3443ZM16.64 22.3696C16.6584 22.5751 16.6042 22.7805 16.487 22.9493C16.3698 23.118 16.1972 23.2392 16 23.2911C15.807 23.3326 15.6057 23.3021 15.433 23.2054C15.2603 23.1087 15.1279 22.9522 15.06 22.7645C14.84 22.1367 14.63 21.5088 14.42 20.881C14.21 20.2532 14.25 20.3949 14.64 20.0607C14.64 20.0607 15.27 19.5949 15.64 19.7772C15.7058 19.7949 15.766 19.8293 15.815 19.8771C15.864 19.925 15.9002 19.9847 15.92 20.0506C16.14 20.7291 16.38 21.4076 16.61 22.0759C16.63 22.1772 16.65 22.2785 16.67 22.3696H16.64ZM18.85 19.2405C17.9026 19.4102 16.93 19.3687 16 19.119L15.77 19.0481L16.62 18.2987L16.74 18.1873L18.74 16.4456C19.16 16.081 19.57 15.7164 19.98 15.3316C20.1667 15.1027 20.3184 14.8467 20.43 14.5721C20.5011 14.4202 20.5645 14.2648 20.62 14.1063C20.8109 14.1428 21.008 14.1265 21.1905 14.0591C21.373 13.9916 21.5341 13.8756 21.657 13.7232C21.7798 13.5708 21.8598 13.3877 21.8885 13.1932C21.9172 12.9986 21.8935 12.7998 21.82 12.6177L22.42 12.3949C22.6542 12.9002 22.8062 13.4405 22.87 13.9949C23.0121 15.2283 22.6705 16.4688 21.9188 17.4498C21.167 18.4307 20.0651 19.0737 18.85 19.2405ZM22.91 10.9063C22.7736 11.1842 22.5701 11.4228 22.3183 11.5998C22.0666 11.7768 21.7748 11.8866 21.47 11.919C21.3748 11.9247 21.2813 11.8919 21.21 11.8278C20.85 11.4835 20.51 11.119 20.16 10.8152C20.1073 10.78 20.0703 10.7252 20.0572 10.6626C20.0441 10.6001 20.0559 10.5348 20.09 10.481C20.1817 10.2851 20.3109 10.1096 20.47 9.96454C20.7169 9.78895 20.9905 9.65554 21.28 9.56961C21.9844 9.42779 22.6604 9.16766 23.28 8.79999C23.3426 9.52942 23.215 10.2627 22.91 10.9266V10.9063Z"/>
    </mask>
    <path d="M23.71 10.8253C24.001 10.0654 24.1007 9.24408 24 8.43543C24.0017 8.33026 23.9734 8.22682 23.9185 8.13751C23.8636 8.04821 23.7845 7.97683 23.6905 7.93194C23.5966 7.88705 23.4919 7.87054 23.3889 7.88441C23.2859 7.89828 23.1891 7.94192 23.11 8.01011C22.8232 8.19903 22.5223 8.36493 22.21 8.50632C21.9229 8.61691 21.6289 8.70825 21.33 8.77973V4.14176C21.3253 3.91623 21.2951 3.69198 21.24 3.4734C21.1241 3.10008 20.8874 2.77716 20.5681 2.5567C20.2488 2.33624 19.8655 2.2311 19.48 2.25821H12.28V1.65062C12.2974 1.42776 12.2691 1.20365 12.1969 0.992401C12.1247 0.78115 12.01 0.587325 11.8602 0.423118C11.7104 0.258912 11.5286 0.127878 11.3264 0.0382583C11.1241 -0.0513609 10.9058 -0.0976257 10.685 -0.0976257C10.4642 -0.0976257 10.2459 -0.0513609 10.0436 0.0382583C9.84135 0.127878 9.65961 0.258912 9.50979 0.423118C9.35998 0.587325 9.24534 0.78115 9.1731 0.992401C9.10085 1.20365 9.07256 1.42776 9.09 1.65062V2.25821H1.85C1.42299 2.22045 0.997338 2.34456 0.65554 2.6065C0.313742 2.86843 0.080138 3.24953 0 3.67594C0 3.67594 0 4.18227 0 4.5367V16.081C0 16.081 0 16.081 0 16.1418C0.0839884 16.5615 0.316083 16.9359 0.652886 17.195C0.98969 17.4541 1.40814 17.58 1.83 17.5494H5.49L5.27 18.2278C4.85 19.4329 4.43 20.6582 4 21.8937C3.92385 22.0896 3.88768 22.2991 3.89365 22.5096C3.89963 22.7201 3.94764 22.9271 4.03478 23.1183C4.12191 23.3095 4.24638 23.4808 4.40068 23.622C4.55497 23.7631 4.73589 23.8712 4.93254 23.9396C5.12918 24.008 5.33747 24.0354 5.54485 24.0201C5.75223 24.0048 5.95441 23.9472 6.13919 23.8506C6.32397 23.7541 6.48753 23.6206 6.62 23.4583C6.75248 23.296 6.85113 23.1083 6.91 22.9063C7.25 21.9443 7.58 20.9823 7.91 20.0202C7.98 19.8177 8.06 19.7468 8.27 19.7468C9.09 19.7468 9.91 19.7468 10.73 19.7468H11C11.0142 20.0543 11.1163 20.351 11.2938 20.6008C11.4713 20.8507 11.7167 21.043 12 21.1544C12.2811 21.2716 12.5893 21.3052 12.8886 21.2514C13.1879 21.1976 13.4659 21.0586 13.69 20.8506C13.94 21.5696 14.16 22.2683 14.42 22.9569C14.515 23.2517 14.6997 23.5083 14.9476 23.6903C15.1955 23.8722 15.4939 23.9699 15.8 23.9696C16.0876 23.9894 16.3746 23.9232 16.6252 23.7792C16.8759 23.6351 17.0793 23.4196 17.21 23.1595C17.3206 22.9587 17.3861 22.7357 17.4016 22.5064C17.4172 22.2771 17.3825 22.0471 17.3 21.8329C17.08 21.2253 16.88 20.6076 16.67 19.9797H16.82C18.0403 20.1645 19.2874 19.9996 20.42 19.5038C21.3272 19.1392 22.1134 18.5211 22.687 17.7215C23.2606 16.9219 23.5981 15.9737 23.66 14.9873C23.7414 13.9846 23.5694 12.9775 23.16 12.0607C23.1333 12.0066 23.1238 11.9455 23.1328 11.8856C23.1417 11.8258 23.1687 11.7703 23.21 11.7266C23.4066 11.4442 23.5741 11.1422 23.71 10.8253ZM9.77 1.45821C9.80682 1.23818 9.92382 1.04015 10.0979 0.903269C10.2719 0.766388 10.4904 0.700622 10.71 0.718974C10.9338 0.734277 11.1436 0.834573 11.2975 0.999799C11.4514 1.16503 11.538 1.383 11.54 1.61011V2.24809H9.76C9.74302 1.98493 9.74636 1.72084 9.77 1.45821ZM0.7 6.81518V4.15189C0.680587 3.99158 0.69749 3.82891 0.749424 3.67621C0.801357 3.52351 0.886959 3.3848 0.99973 3.2706C1.1125 3.1564 1.24948 3.06972 1.40027 3.01712C1.55106 2.96453 1.7117 2.94742 1.87 2.96708H19.42C19.5803 2.93604 19.7456 2.9452 19.9016 2.99376C20.0576 3.04232 20.1995 3.1288 20.3149 3.24566C20.4303 3.36252 20.5157 3.50619 20.5636 3.66416C20.6116 3.82212 20.6206 3.98957 20.59 4.15189V8.56708C20.59 8.64809 20.59 8.7291 20.59 8.84049L20.43 8.73923C19.2069 7.84369 17.7567 7.32024 16.25 7.23037C14.6933 7.08803 13.1406 7.54346 11.9 8.50632C11.7137 8.63899 11.5597 8.81287 11.4497 9.01478C11.3396 9.21669 11.2764 9.44132 11.2649 9.67164C11.2533 9.90196 11.2937 10.1319 11.3829 10.3441C11.4722 10.5563 11.608 10.7451 11.78 10.8962L12.18 11.2709L11.85 11.3721C10.5154 11.7557 9.22476 12.2818 8 12.9418C7.93688 12.9812 7.86417 13.0021 7.79 13.0021C7.71583 13.0021 7.64312 12.9812 7.58 12.9418C5.96605 12.0093 4.22343 11.3267 2.41 10.9164C1.84 10.7848 1.27 10.6734 0.68 10.5519V10.2886C0.7 9.11391 0.71 7.96961 0.7 6.81518ZM19.37 10.1266C19.1889 10.0907 19.0017 10.1015 18.8258 10.1581C18.6498 10.2147 18.4908 10.3152 18.3633 10.4503C18.2358 10.5855 18.1439 10.751 18.0962 10.9315C18.0484 11.1121 18.0463 11.3019 18.09 11.4835L17.95 11.5544C17.3408 11.7611 16.8099 12.1538 16.43 12.6785C15.24 14.1772 14 15.5747 12.8 17.0025L12.62 17.1949C12.4164 16.988 12.226 16.7681 12.05 16.5367C11.9835 16.4443 11.9381 16.3381 11.9172 16.2258C11.8962 16.1135 11.9003 15.9978 11.929 15.8873C11.9577 15.7767 12.0104 15.674 12.0833 15.5867C12.1561 15.4993 12.2472 15.4295 12.35 15.3823C12.9117 15.1236 13.3498 14.6508 13.5689 14.0666C13.7881 13.4825 13.7705 12.8343 13.52 12.2633C13.287 11.5693 12.8805 10.9483 12.34 10.4607C12.2172 10.3789 12.1178 10.2659 12.0516 10.133C11.9854 10.0001 11.9549 9.8519 11.963 9.70327C11.9711 9.55464 12.0175 9.41077 12.0977 9.28603C12.1779 9.16128 12.2891 9.06003 12.42 8.99239C13.4814 8.21904 14.7752 7.84317 16.08 7.9291C17.445 7.99837 18.7642 8.45066 19.89 9.23543L19.96 9.28606L19.37 10.1266ZM21.12 12.6987C21.1883 12.7892 21.2454 12.8879 21.29 12.9924C21.2 13.0937 21.13 13.2456 21.03 13.2759C20.9663 13.2912 20.9 13.2918 20.836 13.2778C20.7719 13.2638 20.7118 13.2355 20.66 13.1949C20.23 12.8 19.82 12.3645 19.41 11.9494C19.24 11.7873 19.07 11.6152 18.91 11.443C18.8767 11.41 18.8503 11.3706 18.8323 11.3272C18.8142 11.2837 18.8049 11.237 18.8049 11.1899C18.8049 11.1427 18.8142 11.096 18.8323 11.0526C18.8503 11.0091 18.8767 10.9697 18.91 10.9367C18.9419 10.8983 18.9817 10.8675 19.0266 10.8464C19.0715 10.8252 19.1205 10.8143 19.17 10.8143C19.2195 10.8143 19.2685 10.8252 19.3134 10.8464C19.3583 10.8675 19.3981 10.8983 19.43 10.9367L21.12 12.6987ZM2.81 16.7494C2.45 16.7494 2.09 16.7494 1.73 16.7494C1.46478 16.7494 1.21043 16.6427 1.02289 16.4528C0.835357 16.2628 0.73 16.0053 0.73 15.7367C0.73 14.2683 0.73 12.8 0.73 11.3215C0.726892 11.2844 0.726892 11.2472 0.73 11.2101C2.96006 11.5509 5.11314 12.288 7.09 13.3873L6.92 13.5088C5.55444 14.3727 4.3042 15.4108 3.2 16.5975C3.15881 16.6665 3.10193 16.7246 3.03409 16.7668C2.96625 16.8091 2.88942 16.8344 2.81 16.8405V16.7494ZM7.29 19.6051C6.96 20.6177 6.62 21.5696 6.29 22.5519C6.25713 22.6608 6.20299 22.762 6.13079 22.8494C6.05858 22.9367 5.96978 23.0085 5.86966 23.0604C5.76954 23.1124 5.66014 23.1434 5.54794 23.1517C5.43574 23.1601 5.32304 23.1455 5.21652 23.1088C5.10999 23.0722 5.01182 23.0143 4.92783 22.9385C4.84384 22.8627 4.77574 22.7706 4.72756 22.6676C4.67939 22.5647 4.65212 22.453 4.64739 22.3392C4.64265 22.2254 4.66055 22.1117 4.7 22.005L6 18.2278L6.22 17.6101H8C7.77 18.2785 7.53 18.9873 7.29 19.6962V19.6051ZM4 16.8202C6.36421 14.4267 9.32651 12.729 12.57 11.9088C12.894 12.3938 13.0456 12.9758 13 13.5595C12.9738 13.809 12.8808 14.0465 12.731 14.2464C12.5812 14.4463 12.3803 14.601 12.15 14.6937C11.8899 14.7996 11.6666 14.9812 11.5082 15.2154C11.3498 15.4497 11.2634 15.7262 11.26 16.0101C11.2727 16.2829 11.3095 16.5541 11.37 16.8202H4ZM11.16 18.9569C11.16 19.0076 11.07 19.0582 11.02 19.0582H8.25L8.74 17.6304C8.76111 17.6055 8.78716 17.5854 8.81646 17.5715C8.84575 17.5575 8.87763 17.55 8.91 17.5494H11.86C11.96 17.5494 12.06 17.6405 12.2 17.7013C11.99 17.9443 11.81 18.1468 11.64 18.3595L11.16 18.9569ZM13.16 20.3443C13.0479 20.4502 12.9114 20.5261 12.7629 20.565C12.6145 20.6039 12.4588 20.6046 12.31 20.5671C12.1649 20.5285 12.0322 20.4527 11.9246 20.3469C11.817 20.2411 11.7383 20.1089 11.696 19.9632C11.6538 19.8175 11.6494 19.6632 11.6834 19.5152C11.7174 19.3673 11.7886 19.2308 11.89 19.119L14.44 16.081C15.39 14.9671 16.35 13.8532 17.29 12.7291C17.6395 12.4496 18.0459 12.2525 18.48 12.1519C18.48 12.1519 18.59 12.1519 18.63 12.2228C19.08 12.6785 19.53 13.124 19.97 13.5797C19.9989 13.6511 19.9989 13.7311 19.97 13.8025C19.8014 14.3854 19.4504 14.8971 18.97 15.2607C18.56 15.5645 18.18 15.919 17.79 16.2734L16.12 17.7418L14.96 18.7544L13.16 20.3443ZM16.64 22.3696C16.6584 22.5751 16.6042 22.7805 16.487 22.9493C16.3698 23.118 16.1972 23.2392 16 23.2911C15.807 23.3326 15.6057 23.3021 15.433 23.2054C15.2603 23.1087 15.1279 22.9522 15.06 22.7645C14.84 22.1367 14.63 21.5088 14.42 20.881C14.21 20.2532 14.25 20.3949 14.64 20.0607C14.64 20.0607 15.27 19.5949 15.64 19.7772C15.7058 19.7949 15.766 19.8293 15.815 19.8771C15.864 19.925 15.9002 19.9847 15.92 20.0506C16.14 20.7291 16.38 21.4076 16.61 22.0759C16.63 22.1772 16.65 22.2785 16.67 22.3696H16.64ZM18.85 19.2405C17.9026 19.4102 16.93 19.3687 16 19.119L15.77 19.0481L16.62 18.2987L16.74 18.1873L18.74 16.4456C19.16 16.081 19.57 15.7164 19.98 15.3316C20.1667 15.1027 20.3184 14.8467 20.43 14.5721C20.5011 14.4202 20.5645 14.2648 20.62 14.1063C20.8109 14.1428 21.008 14.1265 21.1905 14.0591C21.373 13.9916 21.5341 13.8756 21.657 13.7232C21.7798 13.5708 21.8598 13.3877 21.8885 13.1932C21.9172 12.9986 21.8935 12.7998 21.82 12.6177L22.42 12.3949C22.6542 12.9002 22.8062 13.4405 22.87 13.9949C23.0121 15.2283 22.6705 16.4688 21.9188 17.4498C21.167 18.4307 20.0651 19.0737 18.85 19.2405ZM22.91 10.9063C22.7736 11.1842 22.5701 11.4228 22.3183 11.5998C22.0666 11.7768 21.7748 11.8866 21.47 11.919C21.3748 11.9247 21.2813 11.8919 21.21 11.8278C20.85 11.4835 20.51 11.119 20.16 10.8152C20.1073 10.78 20.0703 10.7252 20.0572 10.6626C20.0441 10.6001 20.0559 10.5348 20.09 10.481C20.1817 10.2851 20.3109 10.1096 20.47 9.96454C20.7169 9.78895 20.9905 9.65554 21.28 9.56961C21.9844 9.42779 22.6604 9.16766 23.28 8.79999C23.3426 9.52942 23.215 10.2627 22.91 10.9266V10.9063Z" fill="url(#paint10_linear_2_118)" stroke="url(#paint11_linear_2_118)" stroke-width="2" mask="url(#path-11-inside-1_2_118)"/>
    <path d="M6 8.29366C6.32439 8.30172 6.64378 8.21155 6.91726 8.03469C7.19075 7.85783 7.40588 7.60234 7.53512 7.30093C7.66435 6.99951 7.70181 6.6659 7.64269 6.3428C7.58358 6.0197 7.43057 5.72182 7.20328 5.48731C6.97598 5.25279 6.68474 5.09231 6.36684 5.02642C6.04894 4.96052 5.71885 4.99221 5.41884 5.11743C5.11884 5.24265 4.86256 5.45569 4.68283 5.72928C4.50311 6.00287 4.40811 6.32456 4.41 6.65315C4.41247 7.08225 4.57986 7.4935 4.87667 7.79974C5.17348 8.10598 5.57639 8.28314 6 8.29366ZM6 5.72151C6.12888 5.70681 6.25937 5.7205 6.38254 5.76162C6.50571 5.80275 6.61865 5.87035 6.71362 5.95979C6.80859 6.04923 6.88335 6.1584 6.93278 6.27982C6.98221 6.40124 7.00514 6.53205 7 6.66328C6.9991 6.7919 6.97191 6.91893 6.92015 7.03639C6.86838 7.15384 6.79316 7.25917 6.69922 7.34573C6.60528 7.4323 6.49466 7.49823 6.37432 7.53938C6.25398 7.58052 6.12653 7.59599 6 7.5848C5.75593 7.57691 5.52448 7.47314 5.35463 7.29548C5.18478 7.11781 5.08988 6.88018 5.09 6.6329C5.09518 6.39108 5.19303 6.16078 5.36285 5.9907C5.53267 5.82061 5.76116 5.72408 6 5.72151Z" fill="url(#paint12_linear_2_118)"/>
    <path d="M4.11 5.16454C4.16209 5.19501 4.22124 5.21094 4.2814 5.2107C4.34156 5.21045 4.40058 5.19405 4.45243 5.16316C4.50429 5.13227 4.54712 5.08801 4.57656 5.03488C4.60599 4.98175 4.62099 4.92166 4.62 4.86075C4.58058 4.71216 4.5021 4.57718 4.39292 4.47018C4.28374 4.36319 4.14794 4.28818 4 4.25315C3.93945 4.25062 3.87938 4.26503 3.82638 4.29479C3.77338 4.32455 3.72949 4.36851 3.69954 4.42186C3.66958 4.47521 3.65471 4.53588 3.65656 4.59722C3.6584 4.65856 3.67689 4.71821 3.71 4.76961C3.81679 4.92627 3.95265 5.0604 4.11 5.16454Z" fill="url(#paint13_linear_2_118)"/>
    <path d="M7.79001 8.10126C7.7313 8.10126 7.67359 8.11665 7.62249 8.14595C7.5714 8.17524 7.52867 8.21744 7.49846 8.26842C7.46826 8.3194 7.4516 8.37744 7.45012 8.43688C7.44864 8.49631 7.46238 8.55513 7.49001 8.60759C7.59714 8.76676 7.73282 8.90416 7.89001 9.01265C7.94211 9.04312 8.00125 9.05904 8.06141 9.0588C8.12157 9.05856 8.18059 9.04216 8.23244 9.01127C8.2843 8.98038 8.32713 8.93611 8.35657 8.88298C8.38601 8.82985 8.401 8.76977 8.40001 8.70885C8.35954 8.56248 8.28194 8.42937 8.17493 8.32278C8.06791 8.21619 7.93521 8.13982 7.79001 8.10126Z" fill="url(#paint14_linear_2_118)"/>
    <path d="M3.20001 7.00757H3.53001C3.57814 7.00759 3.62578 6.99784 3.67012 6.97889C3.71447 6.95994 3.7546 6.93217 3.78817 6.89724C3.82173 6.86231 3.84804 6.82092 3.86553 6.77551C3.88302 6.7301 3.89134 6.68161 3.89001 6.63289C3.8875 6.5854 3.87559 6.53891 3.85497 6.49618C3.83435 6.45346 3.80545 6.41537 3.77 6.38419C3.73454 6.35301 3.69325 6.32937 3.64858 6.31468C3.60392 6.3 3.55679 6.29457 3.51001 6.29871H3.21001C3.16323 6.29457 3.1161 6.3 3.07143 6.31468C3.02677 6.32937 2.98548 6.35301 2.95002 6.38419C2.91456 6.41537 2.88566 6.45346 2.86505 6.49618C2.84443 6.53891 2.83251 6.5854 2.83001 6.63289C2.82863 6.68247 2.83725 6.73182 2.85536 6.77791C2.87347 6.824 2.90067 6.86587 2.93531 6.90094C2.96994 6.93602 3.01128 6.96356 3.0568 6.9819C3.10231 7.00023 3.15104 7.00897 3.20001 7.00757Z" fill="url(#paint15_linear_2_118)"/>
    <path d="M4.1 8.10125C3.94353 8.20726 3.81069 8.34523 3.71 8.50632C3.68194 8.55954 3.66818 8.6193 3.6701 8.6796C3.67202 8.73991 3.68956 8.79864 3.72095 8.84992C3.75235 8.9012 3.7965 8.94322 3.84899 8.97178C3.90147 9.00034 3.96045 9.01443 4.02 9.01264C4.16455 8.97166 4.29599 8.89308 4.40125 8.78471C4.50651 8.67634 4.58192 8.54196 4.62 8.39492C4.62028 8.33335 4.60425 8.27283 4.57358 8.21966C4.5429 8.1665 4.49871 8.12263 4.44561 8.09264C4.3925 8.06265 4.33243 8.04763 4.27164 8.04915C4.21086 8.05066 4.15159 8.06865 4.1 8.10125Z" fill="url(#paint16_linear_2_118)"/>
    <path d="M6.05 8.82023C6.00662 8.81605 5.96287 8.82061 5.92125 8.83365C5.87963 8.84669 5.84097 8.86794 5.8075 8.89618C5.77403 8.92442 5.74642 8.9591 5.72625 8.9982C5.70608 9.03731 5.69376 9.08007 5.68999 9.12402C5.66999 9.27864 5.66999 9.43523 5.68999 9.58985C5.69369 9.63343 5.70605 9.6758 5.72634 9.71441C5.74664 9.75302 5.77444 9.78708 5.80808 9.81452C5.84172 9.84196 5.88049 9.86221 5.92207 9.87407C5.96364 9.88593 6.00716 9.88914 6.05 9.88352C6.09285 9.88487 6.13554 9.8775 6.17553 9.86182C6.21551 9.84614 6.25198 9.82249 6.28276 9.79226C6.31354 9.76203 6.33801 9.72585 6.35472 9.68586C6.37142 9.64587 6.38002 9.60289 6.37999 9.55947V9.1139C6.37018 9.03246 6.33112 8.95753 6.27026 8.90337C6.20941 8.84922 6.13101 8.81962 6.05 8.82023Z" fill="url(#paint17_linear_2_118)"/>
    <path d="M6.05999 4.47594C6.10333 4.47463 6.14599 4.46468 6.18554 4.44666C6.22508 4.42865 6.26073 4.40292 6.29045 4.37094C6.32017 4.33896 6.34337 4.30137 6.35874 4.26031C6.3741 4.21925 6.38132 4.17552 6.37999 4.13163V3.93923V3.79745C6.37999 3.70345 6.34311 3.6133 6.27748 3.54683C6.21184 3.48037 6.12281 3.44302 6.02999 3.44302C5.93716 3.44302 5.84814 3.48037 5.7825 3.54683C5.71686 3.6133 5.67999 3.70345 5.67999 3.79745C5.66502 3.92189 5.66502 4.0477 5.67999 4.17214C5.68357 4.21802 5.69648 4.26267 5.7179 4.30327C5.73933 4.34387 5.7688 4.37954 5.80448 4.40807C5.84015 4.43659 5.88127 4.45734 5.92523 4.46902C5.9692 4.4807 6.01508 4.48305 6.05999 4.47594Z" fill="url(#paint18_linear_2_118)"/>
    <path d="M8.17999 6.64302C8.17992 6.69265 8.18985 6.74177 8.20918 6.78737C8.22851 6.83298 8.25683 6.8741 8.2924 6.90823C8.32798 6.94237 8.37006 6.96878 8.41608 6.98586C8.46209 7.00295 8.51106 7.01033 8.55999 7.00758C8.68312 7.01768 8.80686 7.01768 8.92999 7.00758C8.97434 7.00383 9.01747 6.99105 9.05681 6.96998C9.09615 6.94892 9.13087 6.92002 9.1589 6.88502C9.18692 6.85002 9.20767 6.80964 9.21988 6.76631C9.2321 6.72299 9.23554 6.6776 9.22999 6.63289C9.2287 6.589 9.21888 6.5458 9.20109 6.50576C9.1833 6.46571 9.15789 6.42961 9.12631 6.39951C9.09473 6.36942 9.05761 6.34592 9.01706 6.33036C8.97651 6.31481 8.93333 6.30749 8.88999 6.30884H8.56999C8.32999 6.30884 8.18999 6.43036 8.17999 6.64302Z" fill="url(#paint19_linear_2_118)"/>
    <path d="M7.79 5.20505C8.02 5.20505 8.4 4.83037 8.39 4.51644C8.39 4.51644 8.3 4.33416 8.2 4.30378C8.08416 4.25852 7.95584 4.25852 7.84 4.30378C7.71319 4.3816 7.60684 4.4893 7.53 4.61771C7.49169 4.68471 7.46907 4.75972 7.46387 4.83696C7.45866 4.91421 7.47103 4.99163 7.5 5.06328C7.57488 5.14679 7.67885 5.19762 7.79 5.20505Z" fill="url(#paint20_linear_2_118)"/>
  </g>
  <defs>
    <linearGradient id="paint0_linear_2_118" x1="1.81962" y1="2.94907" x2="8.40864" y2="17.3631" gradientUnits="userSpaceOnUse">
      <stop offset="0.255" stop-color="#72CDFB"/>
      <stop offset="1" stop-color="#62C8FB"/>
    </linearGradient>
    <linearGradient id="paint1_linear_2_118" x1="1.07821" y1="11.281" x2="5.75134" y2="17.208" gradientUnits="userSpaceOnUse">
      <stop offset="0.255" stop-color="#72CDFB"/>
      <stop offset="1" stop-color="#62C8FB"/>
    </linearGradient>
    <linearGradient id="paint2_linear_2_118" x1="12.3705" y1="7.89679" x2="20.4127" y2="15.6078" gradientUnits="userSpaceOnUse">
      <stop offset="0.255" stop-color="#72CDFB"/>
      <stop offset="1" stop-color="#62C8FB"/>
    </linearGradient>
    <linearGradient id="paint3_linear_2_118" x1="5.17941" y1="5.71579" x2="6.79042" y2="7.54999" gradientUnits="userSpaceOnUse">
      <stop offset="0.255" stop-color="#72CDFB"/>
      <stop offset="1" stop-color="#62C8FB"/>
    </linearGradient>
    <linearGradient id="paint4_linear_2_118" x1="9.85592" y1="0.715942" x2="11.144" y2="2.37331" gradientUnits="userSpaceOnUse">
      <stop offset="0.255" stop-color="#72CDFB"/>
      <stop offset="1" stop-color="#62C8FB"/>
    </linearGradient>
    <linearGradient id="paint5_linear_2_118" x1="16.2243" y1="12.3443" x2="22.219" y2="19.1272" gradientUnits="userSpaceOnUse">
      <stop offset="0.255" stop-color="#72CDFB"/>
      <stop offset="1" stop-color="#62C8FB"/>
    </linearGradient>
    <linearGradient id="paint6_linear_2_118" x1="14.4276" y1="19.7024" x2="17.4147" y2="21.8952" gradientUnits="userSpaceOnUse">
      <stop offset="0.255" stop-color="#72CDFB"/>
      <stop offset="1" stop-color="#62C8FB"/>
    </linearGradient>
    <linearGradient id="paint7_linear_2_118" x1="4.82781" y1="17.5595" x2="9.35018" y2="20.5223" gradientUnits="userSpaceOnUse">
      <stop offset="0.255" stop-color="#72CDFB"/>
      <stop offset="1" stop-color="#62C8FB"/>
    </linearGradient>
    <linearGradient id="paint8_linear_2_118" x1="4.5108" y1="11.9088" x2="7.89244" y2="18.7624" gradientUnits="userSpaceOnUse">
      <stop offset="0.255" stop-color="#72CDFB"/>
      <stop offset="1" stop-color="#62C8FB"/>
    </linearGradient>
    <linearGradient id="paint9_linear_2_118" x1="8.47157" y1="17.5493" x2="9.28693" y2="19.8825" gradientUnits="userSpaceOnUse">
      <stop offset="0.255" stop-color="#72CDFB"/>
      <stop offset="1" stop-color="#62C8FB"/>
    </linearGradient>
    <linearGradient id="paint10_linear_2_118" x1="1.36216" y1="-0.0976254" x2="22.1944" y2="22.8264" gradientUnits="userSpaceOnUse">
      <stop offset="0.259336" stop-color="#6ECFFF"/>
      <stop offset="1" stop-color="#62C8FB"/>
    </linearGradient>
    <linearGradient id="paint11_linear_2_118" x1="1.36216" y1="-0.0976254" x2="22.1944" y2="22.8264" gradientUnits="userSpaceOnUse">
      <stop offset="0.259336" stop-color="#72CDFB"/>
      <stop offset="1" stop-color="#62C8FB"/>
    </linearGradient>
    <linearGradient id="paint12_linear_2_118" x1="4.59471" y1="4.99289" x2="7.44812" y2="8.10438" gradientUnits="userSpaceOnUse">
      <stop offset="0.259336" stop-color="#6ECFFF"/>
      <stop offset="1" stop-color="#62C8FB"/>
    </linearGradient>
    <linearGradient id="paint13_linear_2_118" x1="3.71101" y1="4.25287" x2="4.53743" y2="5.17097" gradientUnits="userSpaceOnUse">
      <stop offset="0.259336" stop-color="#6ECFFF"/>
      <stop offset="1" stop-color="#62C8FB"/>
    </linearGradient>
    <linearGradient id="paint14_linear_2_118" x1="7.50385" y1="8.10126" x2="8.33115" y2="9.00764" gradientUnits="userSpaceOnUse">
      <stop offset="0.259336" stop-color="#6ECFFF"/>
      <stop offset="1" stop-color="#62C8FB"/>
    </linearGradient>
    <linearGradient id="paint15_linear_2_118" x1="2.88995" y1="6.29736" x2="3.43656" y2="7.1983" gradientUnits="userSpaceOnUse">
      <stop offset="0.259336" stop-color="#6ECFFF"/>
      <stop offset="1" stop-color="#62C8FB"/>
    </linearGradient>
    <linearGradient id="paint16_linear_2_118" x1="3.72376" y1="8.04904" x2="4.55689" y2="8.95598" gradientUnits="userSpaceOnUse">
      <stop offset="0.259336" stop-color="#6ECFFF"/>
      <stop offset="1" stop-color="#62C8FB"/>
    </linearGradient>
    <linearGradient id="paint17_linear_2_118" x1="5.71494" y1="8.81873" x2="6.59676" y2="9.46183" gradientUnits="userSpaceOnUse">
      <stop offset="0.259336" stop-color="#6ECFFF"/>
      <stop offset="1" stop-color="#62C8FB"/>
    </linearGradient>
    <linearGradient id="paint18_linear_2_118" x1="5.70907" y1="3.44302" x2="6.5751" y2="4.09909" gradientUnits="userSpaceOnUse">
      <stop offset="0.259336" stop-color="#6ECFFF"/>
      <stop offset="1" stop-color="#62C8FB"/>
    </linearGradient>
    <linearGradient id="paint19_linear_2_118" x1="8.23964" y1="6.30869" x2="8.78372" y2="7.20382" gradientUnits="userSpaceOnUse">
      <stop offset="0.259336" stop-color="#6ECFFF"/>
      <stop offset="1" stop-color="#62C8FB"/>
    </linearGradient>
    <linearGradient id="paint20_linear_2_118" x1="7.51526" y1="4.26984" x2="8.3233" y2="5.15473" gradientUnits="userSpaceOnUse">
      <stop offset="0.259336" stop-color="#6ECFFF"/>
      <stop offset="1" stop-color="#62C8FB"/>
    </linearGradient>
    <clipPath id="clip0_2_118">
      <rect width="24" height="24" fill="white"/>
    </clipPath>
  </defs>
</svg>
