<svg width="24" height="24" viewBox="0 0 24 24" fill="none" xmlns="http://www.w3.org/2000/svg">
    <g clip-path="url(#clip0_2_30)">
        <mask id="path-1-inside-1_2_30" fill="white">
            <path d="M18.121 7.879C19.291 9.049 19.291 10.951 18.121 12.121L15.538 14.705C15.343 14.9 15.087 14.998 14.831 14.998C14.575 14.998 14.319 14.9 14.124 14.705C13.733 14.314 13.733 13.682 14.124 13.291L16.707 10.707C17.097 10.317 17.097 9.683 16.707 9.293L14.124 6.709C13.733 6.318 13.733 5.686 14.124 5.295C14.515 4.904 15.147 4.904 15.538 5.295L18.121 7.879ZM9.876 6.709C10.267 6.318 10.267 5.686 9.876 5.295C9.485 4.904 8.853 4.904 8.462 5.295L5.879 7.879C4.709 9.049 4.709 10.951 5.879 12.121L8.462 14.705C8.657 14.9 8.913 14.998 9.169 14.998C9.425 14.998 9.681 14.9 9.876 14.705C10.267 14.314 10.267 13.682 9.876 13.291L7.293 10.707C6.903 10.317 6.903 9.683 7.293 9.293L9.876 6.709ZM24 6V14C24 16.757 21.757 19 19 19H13V21H17C17.552 21 18 21.447 18 22C18 22.553 17.552 23 17 23H7C6.448 23 6 22.553 6 22C6 21.447 6.448 21 7 21H11V19H5C2.243 19 0 16.757 0 14V6C0 3.243 2.243 1 5 1H19C21.757 1 24 3.243 24 6ZM22 6C22 4.346 20.654 3 19 3H5C3.346 3 2 4.346 2 6V14C2 15.654 3.346 17 5 17H19C20.654 17 22 15.654 22 14V6Z"/>
        </mask>
        <path d="M18.121 7.879C19.291 9.049 19.291 10.951 18.121 12.121L15.538 14.705C15.343 14.9 15.087 14.998 14.831 14.998C14.575 14.998 14.319 14.9 14.124 14.705C13.733 14.314 13.733 13.682 14.124 13.291L16.707 10.707C17.097 10.317 17.097 9.683 16.707 9.293L14.124 6.709C13.733 6.318 13.733 5.686 14.124 5.295C14.515 4.904 15.147 4.904 15.538 5.295L18.121 7.879ZM9.876 6.709C10.267 6.318 10.267 5.686 9.876 5.295C9.485 4.904 8.853 4.904 8.462 5.295L5.879 7.879C4.709 9.049 4.709 10.951 5.879 12.121L8.462 14.705C8.657 14.9 8.913 14.998 9.169 14.998C9.425 14.998 9.681 14.9 9.876 14.705C10.267 14.314 10.267 13.682 9.876 13.291L7.293 10.707C6.903 10.317 6.903 9.683 7.293 9.293L9.876 6.709ZM24 6V14C24 16.757 21.757 19 19 19H13V21H17C17.552 21 18 21.447 18 22C18 22.553 17.552 23 17 23H7C6.448 23 6 22.553 6 22C6 21.447 6.448 21 7 21H11V19H5C2.243 19 0 16.757 0 14V6C0 3.243 2.243 1 5 1H19C21.757 1 24 3.243 24 6ZM22 6C22 4.346 20.654 3 19 3H5C3.346 3 2 4.346 2 6V14C2 15.654 3.346 17 5 17H19C20.654 17 22 15.654 22 14V6Z" fill="url(#paint0_linear_2_30)"/>
        <path d="M18.121 7.879L3.03314 22.961L3.03606 22.9639L18.121 7.879ZM18.121 12.121L3.03605 -2.96395L3.03314 -2.96103L18.121 12.121ZM15.538 14.705L30.6229 29.7899L30.6259 29.787L15.538 14.705ZM14.124 13.291L29.2089 28.3759L29.2119 28.373L14.124 13.291ZM16.707 10.707L1.62206 -4.37795L1.61914 -4.37503L16.707 10.707ZM16.707 9.293L1.61914 24.375L1.62206 24.3779L16.707 9.293ZM14.124 6.709L29.2119 -8.37303L29.2089 -8.37595L14.124 6.709ZM15.538 5.295L30.6259 -9.78703L30.6229 -9.78995L15.538 5.295ZM9.876 6.709L-5.20894 -8.37595L-5.21186 -8.37303L9.876 6.709ZM8.462 5.295L-6.62295 -9.78995L-6.62587 -9.78702L8.462 5.295ZM5.879 7.879L20.9639 22.9639L20.9669 22.961L5.879 7.879ZM5.879 12.121L20.9669 -2.96103L20.9639 -2.96394L5.879 12.121ZM8.462 14.705L-6.62586 29.787L-6.62295 29.7899L8.462 14.705ZM9.876 13.291L-5.21187 28.373L-5.20894 28.3759L9.876 13.291ZM7.293 10.707L22.3809 -4.37502L22.3779 -4.37795L7.293 10.707ZM7.293 9.293L22.3779 24.3779L22.3809 24.375L7.293 9.293ZM13 19V-2.33333H-8.33333V19H13ZM13 21H-8.33333V42.3333H13V21ZM11 21V42.3333H32.3333V21H11ZM11 19H32.3333V-2.33333H11V19ZM3.03606 22.9639C-4.12513 15.8028 -4.12513 4.19724 3.03606 -2.96394L33.2059 27.2059C42.7071 17.7048 42.7071 2.29524 33.2059 -7.20594L3.03606 22.9639ZM3.03314 -2.96103L0.450137 -0.377027L30.6259 29.787L33.2089 27.203L3.03314 -2.96103ZM0.453055 -0.379945C4.41017 -4.33706 9.64672 -6.33533 14.831 -6.33533V36.3313C20.5273 36.3313 26.2758 34.1371 30.6229 29.7899L0.453055 -0.379945ZM14.831 -6.33533C20.0153 -6.33533 25.2518 -4.33707 29.2089 -0.379945L-0.960946 29.7899C3.38618 34.1371 9.13474 36.3313 14.831 36.3313V-6.33533ZM29.2089 -0.379945C37.1491 7.56024 37.1491 20.4358 29.2089 28.3759L-0.960946 -1.79394C-9.68313 6.92824 -9.68313 21.0678 -0.960946 29.7899L29.2089 -0.379945ZM29.2119 28.373L31.7949 25.789L1.61914 -4.37503L-0.963863 -1.79103L29.2119 28.373ZM31.7919 25.7919C40.5131 17.0708 40.5131 2.92924 31.7919 -5.79194L1.62206 24.3779C-6.31913 16.4368 -6.31913 3.56324 1.62206 -4.37795L31.7919 25.7919ZM31.7949 -5.78903L29.2119 -8.37303L-0.963862 21.791L1.61914 24.375L31.7949 -5.78903ZM29.2089 -8.37595C37.1491 -0.43576 37.1491 12.4398 29.2089 20.3799L-0.960946 -9.78995C-9.68313 -1.06776 -9.68313 13.0718 -0.960946 21.7939L29.2089 -8.37595ZM29.2089 20.3799C21.2688 28.3201 8.39324 28.3201 0.453055 20.3799L30.6229 -9.78995C21.9008 -18.5121 7.76124 -18.5121 -0.960946 -9.78995L29.2089 20.3799ZM0.450136 20.377L3.03314 22.961L33.2089 -7.20303L30.6259 -9.78703L0.450136 20.377ZM24.9609 21.7939C33.6831 13.0718 33.6831 -1.06776 24.9609 -9.78995L-5.20894 20.3799C-13.1491 12.4398 -13.1491 -0.43576 -5.20894 -8.37595L24.9609 21.7939ZM24.9609 -9.78995C16.2388 -18.5121 2.09924 -18.5121 -6.62295 -9.78995L23.5469 20.3799C15.6068 28.3201 2.73124 28.3201 -5.20894 20.3799L24.9609 -9.78995ZM-6.62587 -9.78702L-9.20887 -7.20302L20.9669 22.961L23.5499 20.377L-6.62587 -9.78702ZM-9.20594 -7.20594C-18.7071 2.29524 -18.7071 17.7048 -9.20594 27.2059L20.9639 -2.96394C28.1251 4.19724 28.1251 15.8028 20.9639 22.9639L-9.20594 -7.20594ZM-9.20886 27.203L-6.62586 29.787L23.5499 -0.377026L20.9669 -2.96103L-9.20886 27.203ZM-6.62295 29.7899C-2.27583 34.1371 3.47272 36.3313 9.169 36.3313V-6.33533C14.3533 -6.33533 19.5898 -4.33706 23.5469 -0.379945L-6.62295 29.7899ZM9.169 36.3313C14.8653 36.3313 20.6138 34.1371 24.9609 29.7899L-5.20894 -0.379945C-1.25182 -4.33707 3.98474 -6.33533 9.169 -6.33533V36.3313ZM24.9609 29.7899C33.6831 21.0678 33.6831 6.92824 24.9609 -1.79394L-5.20894 28.3759C-13.1491 20.4358 -13.1491 7.56024 -5.20894 -0.379945L24.9609 29.7899ZM24.9639 -1.79102L22.3809 -4.37502L-7.79487 25.789L-5.21187 28.373L24.9639 -1.79102ZM22.3779 -4.37795C30.3191 3.56324 30.3191 16.4368 22.3779 24.3779L-7.79194 -5.79194C-16.5131 2.92924 -16.5131 17.0708 -7.79194 25.7919L22.3779 -4.37795ZM22.3809 24.375L24.9639 21.791L-5.21186 -8.37303L-7.79486 -5.78903L22.3809 24.375ZM2.66667 6V14H45.3333V6H2.66667ZM2.66667 14C2.66667 4.97492 9.97492 -2.33333 19 -2.33333V40.3333C33.5391 40.3333 45.3333 28.5391 45.3333 14H2.66667ZM19 -2.33333H13V40.3333H19V-2.33333ZM-8.33333 19V21H34.3333V19H-8.33333ZM13 42.3333H17V-0.333334H13V42.3333ZM17 42.3333C5.78382 42.3333 -3.33333 33.243 -3.33333 22H39.3333C39.3333 9.65103 29.3202 -0.333334 17 -0.333334V42.3333ZM-3.33333 22C-3.33333 10.757 5.78382 1.66667 17 1.66667V44.3333C29.3202 44.3333 39.3333 34.349 39.3333 22H-3.33333ZM17 1.66667H7V44.3333H17V1.66667ZM7 1.66667C18.2162 1.66667 27.3333 10.757 27.3333 22H-15.3333C-15.3333 34.349 -5.32018 44.3333 7 44.3333V1.66667ZM27.3333 22C27.3333 33.243 18.2162 42.3333 7 42.3333V-0.333334C-5.32018 -0.333334 -15.3333 9.65103 -15.3333 22H27.3333ZM7 42.3333H11V-0.333334H7V42.3333ZM32.3333 21V19H-10.3333V21H32.3333ZM11 -2.33333H5V40.3333H11V-2.33333ZM5 -2.33333C14.0251 -2.33333 21.3333 4.97492 21.3333 14H-21.3333C-21.3333 28.5391 -9.53907 40.3333 5 40.3333V-2.33333ZM21.3333 14V6H-21.3333V14H21.3333ZM21.3333 6C21.3333 15.0251 14.0251 22.3333 5 22.3333V-20.3333C-9.53907 -20.3333 -21.3333 -8.53907 -21.3333 6H21.3333ZM5 22.3333H19V-20.3333H5V22.3333ZM19 22.3333C9.97492 22.3333 2.66667 15.0251 2.66667 6H45.3333C45.3333 -8.53907 33.5391 -20.3333 19 -20.3333V22.3333ZM43.3333 6C43.3333 -7.43608 32.4361 -18.3333 19 -18.3333V24.3333C8.87193 24.3333 0.666666 16.1281 0.666666 6H43.3333ZM19 -18.3333H5V24.3333H19V-18.3333ZM5 -18.3333C-8.43608 -18.3333 -19.3333 -7.43608 -19.3333 6H23.3333C23.3333 16.1281 15.1281 24.3333 5 24.3333V-18.3333ZM-19.3333 6V14H23.3333V6H-19.3333ZM-19.3333 14C-19.3333 27.4361 -8.43608 38.3333 5 38.3333V-4.33333C15.1281 -4.33333 23.3333 3.87193 23.3333 14H-19.3333ZM5 38.3333H19V-4.33333H5V38.3333ZM19 38.3333C32.4361 38.3333 43.3333 27.4361 43.3333 14H0.666666C0.666666 3.87193 8.87193 -4.33333 19 -4.33333V38.3333ZM43.3333 14V6H0.666666V14H43.3333Z" fill="url(#paint1_linear_2_30)" mask="url(#path-1-inside-1_2_30)"/>
        <rect opacity="0.15" y="1" width="24" height="18" rx="5" fill="url(#paint2_linear_2_30)"/>
    </g>
    <defs>
        <linearGradient id="paint0_linear_2_30" x1="1.36" y1="1" x2="20.1207" y2="23.5998" gradientUnits="userSpaceOnUse">
            <stop offset="0.259336" stop-color="#6ECFFF"/>
            <stop offset="1" stop-color="#62C8FB"/>
        </linearGradient>
        <linearGradient id="paint1_linear_2_30" x1="1.36" y1="1" x2="20.1207" y2="23.5998" gradientUnits="userSpaceOnUse">
            <stop offset="0.259336" stop-color="#72CDFB"/>
            <stop offset="1" stop-color="#62C8FB"/>
        </linearGradient>
        <linearGradient id="paint2_linear_2_30" x1="1.36" y1="1" x2="15.8767" y2="22.3733" gradientUnits="userSpaceOnUse">
            <stop offset="0.255" stop-color="#72CDFB"/>
            <stop offset="1" stop-color="#62C8FB"/>
        </linearGradient>
        <clipPath id="clip0_2_30">
            <rect width="24" height="24" fill="white"/>
        </clipPath>
    </defs>
</svg>
