<svg width="24" height="24" viewBox="0 0 24 24" fill="none" xmlns="http://www.w3.org/2000/svg">
    <g clip-path="url(#clip0_2_24)">
        <path opacity="0.15" d="M0 5C0 2.23858 2.23858 0 5 0H19C21.7614 0 24 2.23858 24 5V14C24 19.5228 19.5228 24 14 24H5C2.23858 24 0 21.7614 0 19V5Z" fill="url(#paint0_linear_2_24)"/>
        <path d="M19 0H5C2.243 0 0 2.243 0 5V19C0 21.757 2.243 24 5 24H16.343C17.679 24 18.935 23.48 19.879 22.536L22.535 19.879C23.479 18.935 24 17.679 24 16.344V5C24 2.243 21.757 0 19 0ZM2 19V5C2 3.346 3.346 2 5 2H19C20.654 2 22 3.346 22 5V15H18C16.346 15 15 16.346 15 18V22H5C3.346 22 2 20.654 2 19ZM18.465 21.122C18.057 21.53 17.55 21.8 17 21.922V18C17 17.449 17.448 17 18 17H21.92C21.795 17.549 21.523 18.063 21.121 18.464L18.465 21.122ZM8 5.606V10.196C8 10.64 7.64 11 7.196 11C6.878 11 6.59 10.813 6.461 10.522L5.231 7.75V10.385C5.231 10.725 4.955 11 4.616 11C4.276 11 4.001 10.724 4.001 10.385V5.806C4.001 5.361 4.362 5 4.807 5C5.124 5 5.412 5.186 5.542 5.476L6.789 8.25V5.606C6.789 5.271 7.06 5 7.395 5C7.73 5 8.001 5.271 8.001 5.606H8ZM14.75 10.375V6.25H14.125C13.78 6.25 13.5 5.97 13.5 5.625C13.5 5.28 13.78 5 14.125 5H16.625C16.97 5 17.25 5.28 17.25 5.625C17.25 5.97 16.97 6.25 16.625 6.25H16V10.375C16 10.72 15.72 11 15.375 11C15.03 11 14.75 10.72 14.75 10.375ZM10.75 6.25V7.72H11.875C12.22 7.72 12.5 8 12.5 8.345C12.5 8.69 12.22 8.97 11.875 8.97H10.75V10.375C10.75 10.72 10.47 11 10.125 11C9.78 11 9.5 10.72 9.5 10.375V5.625C9.5 5.28 9.78 5 10.125 5H11.875C12.22 5 12.5 5.28 12.5 5.625C12.5 5.97 12.22 6.25 11.875 6.25H10.75Z" fill="url(#paint1_linear_2_24)"/>
    </g>
    <defs>
        <linearGradient id="paint0_linear_2_24" x1="1.36" y1="3.03136e-07" x2="22.08" y2="22.88" gradientUnits="userSpaceOnUse">
            <stop offset="0.255" stop-color="#72CDFB"/>
            <stop offset="1" stop-color="#62C8FB"/>
        </linearGradient>
        <linearGradient id="paint1_linear_2_24" x1="12" y1="0" x2="12" y2="24" gradientUnits="userSpaceOnUse">
            <stop offset="0.26" stop-color="#70CFFF"/>
            <stop offset="1" stop-color="#0586C7"/>
        </linearGradient>
        <clipPath id="clip0_2_24">
            <rect width="24" height="24" fill="white"/>
        </clipPath>
    </defs>
</svg>
